M48
; DRILL file {KiCad 7.0.5} date Sun Sep 24 16:42:13 2023
; FORMAT={-:-/ absolute / inch / decimal}
; #@! TF.CreationDate,2023-09-24T16:42:13-07:00
; #@! TF.GenerationSoftware,Kicad,Pcbnew,7.0.5
; #@! TF.FileFunction,MixedPlating,1,4
FMAT,2
INCH
; #@! TA.AperFunction,Plated,PTH,ViaDrill
T1C0.0157
; #@! TA.AperFunction,Plated,PTH,ComponentDrill
T2C0.0315
; #@! TA.AperFunction,Plated,PTH,ComponentDrill
T3C0.0346
; #@! TA.AperFunction,Plated,PTH,ComponentDrill
T4C0.0378
; #@! TA.AperFunction,Plated,PTH,ComponentDrill
T5C0.0394
; #@! TA.AperFunction,Plated,PTH,ComponentDrill
T6C0.0413
; #@! TA.AperFunction,Plated,PTH,ComponentDrill
T7C0.0550
; #@! TA.AperFunction,Plated,PTH,ComponentDrill
T8C0.0606
; #@! TA.AperFunction,Plated,PTH,ComponentDrill
T9C0.0669
; #@! TA.AperFunction,Plated,PTH,ComponentDrill
T10C0.0937
; #@! TA.AperFunction,Plated,PTH,ComponentDrill
T11C0.1378
; #@! TA.AperFunction,NonPlated,NPTH,ComponentDrill
T12C0.0882
; #@! TA.AperFunction,NonPlated,NPTH,ComponentDrill
T13C0.1180
%
G90
G05
T1
X2.8544Y-2.3719
X2.8587Y-3.3908
X2.8784Y-2.0276
X2.9182Y-4.1859
X2.9292Y-2.3712
X2.9764Y-2.4807
X3.0394Y-1.7748
X3.0732Y-3.3776
X3.1028Y-1.4915
X3.1181Y-1.8118
X3.1327Y-2.1465
X3.1819Y-1.7234
X3.1823Y-1.4874
X3.1852Y-1.4228
X3.1913Y-1.8122
X3.1949Y-2.0555
X3.2065Y-2.376
X3.2075Y-2.763
X3.2079Y-2.1472
X3.2545Y-1.1614
X3.2546Y-1.2359
X3.3079Y-1.4858
X3.3079Y-1.7234
X3.3173Y-2.0547
X3.3181Y-1.8067
X3.3287Y-2.376
X3.3327Y-2.1294
X3.3783Y-1.4915
X3.3896Y-1.2368
X3.3916Y-1.1654
X3.3925Y-1.8067
X3.4071Y-2.1274
X3.5075Y-2.9504
X3.5386Y-1.6161
X3.5484Y-1.5157
X4.224Y-4.7614
X4.224Y-4.9039
X4.2362Y-3.9512
X4.2421Y-3.3858
X4.2618Y-5.2461
X4.2854Y-1.9677
X4.3209Y-3.2972
X4.3209Y-3.4941
X4.3307Y-5.1476
X4.3307Y-5.3445
X4.331Y-3.1904
X4.373Y-5.0398
X4.5528Y-2.9905
X4.5563Y-3.1086
X4.5989Y-4.8115
X4.5989Y-4.9296
X4.5999Y-2.4207
X4.7638Y-5.6693
X4.7638Y-5.7874
X4.7682Y-4.8671
X4.7835Y-3.8386
X4.7835Y-3.9567
X4.7859Y-3.0635
X4.7958Y-5.0394
X4.7958Y-5.1575
X4.7958Y-5.2756
X4.7969Y-4.1535
X4.7969Y-4.2717
X4.7969Y-4.3898
X4.813Y-3.1693
X4.813Y-3.3071
X4.813Y-3.4646
X4.8228Y-2.3231
X4.8228Y-2.4409
X4.8228Y-2.5591
X4.8819Y-4.7568
X4.8819Y-4.8819
X4.8819Y-5.6693
X4.8819Y-5.7874
X4.9016Y-2.9626
X4.9016Y-3.0906
X4.9016Y-3.8386
X4.9016Y-3.9567
X4.9139Y-5.0394
X4.9139Y-5.1575
X4.9139Y-5.2756
X4.915Y-4.1535
X4.915Y-4.2717
X4.915Y-4.3898
X5.0Y-2.3133
X5.0Y-2.4311
X5.0Y-2.5492
X5.0Y-3.1693
X5.0Y-3.3071
X5.0Y-3.4646
X5.0Y-4.8819
X5.0Y-5.6693
X5.0Y-5.7874
X5.0197Y-3.0906
X5.0197Y-3.8386
X5.0197Y-3.9567
X5.0197Y-4.7568
X5.032Y-5.0394
X5.032Y-5.1575
X5.032Y-5.2756
X5.0331Y-4.1535
X5.0331Y-4.2717
X5.0331Y-4.3898
X5.0394Y-2.9626
X5.1181Y-5.6693
X5.1181Y-5.7874
X5.1378Y-3.8386
X5.1378Y-3.9567
X5.1378Y-4.7568
X5.1378Y-4.8819
X5.1501Y-5.0394
X5.1501Y-5.1575
X5.1501Y-5.2756
X5.1512Y-4.1535
X5.1512Y-4.2717
X5.1512Y-4.3898
X5.1575Y-2.9626
X5.1575Y-3.0906
X5.1575Y-3.1693
X5.1575Y-3.3071
X5.1575Y-3.4646
X5.1772Y-2.3231
X5.1772Y-2.4409
X5.1772Y-2.5591
X5.2264Y-4.5472
X5.2264Y-4.626
X5.2264Y-4.7047
X5.2362Y-5.4331
X5.2362Y-5.5512
X5.2362Y-5.6693
X5.2362Y-5.7874
X5.2461Y-2.7461
X5.2461Y-2.815
X5.2461Y-2.8937
X5.2559Y-3.6024
X5.2559Y-3.7205
X5.2559Y-3.8386
X5.2559Y-3.9567
X5.3508Y-2.0516
X5.4882Y-1.5748
X5.489Y-1.676
X5.5751Y-1.4317
X5.5902Y-1.5106
X5.6084Y-1.9069
X5.6111Y-1.7427
X5.748Y-1.2573
X5.9358Y-1.7539
X5.9362Y-1.2748
X6.1339Y-1.9173
X6.1378Y-1.748
X6.1457Y-1.4278
X6.1535Y-1.2795
X6.5354Y-3.2283
X6.5354Y-3.3465
X6.5354Y-3.4646
X6.573Y-2.6171
X6.6169Y-1.489
X6.6181Y-2.8228
X6.6535Y-3.2283
X6.6535Y-3.3465
X6.6535Y-3.4646
X6.6655Y-3.0839
X6.699Y-2.4253
X6.7006Y-2.5007
X6.7717Y-2.1378
X6.7717Y-3.2283
X6.7717Y-3.3465
X6.7717Y-3.4646
X6.8591Y-2.5878
X6.8898Y-3.3465
X6.8898Y-3.4646
X6.8929Y-1.4911
X6.9359Y-2.775
X6.9991Y-2.6559
X7.0053Y-2.7746
X7.0079Y-3.3465
X7.0079Y-3.4646
X7.0537Y-2.777
X7.119Y-2.3115
X7.1882Y-2.2874
X7.2045Y-2.7778
X7.2835Y-3.3465
X7.3744Y-2.7902
X7.4016Y-3.2283
X7.4016Y-3.3465
X7.4016Y-3.4646
X7.434Y-2.9797
X7.5197Y-3.2283
X7.5197Y-3.3465
X7.5197Y-3.4646
X7.6181Y-3.0512
X7.622Y-3.122
X7.6378Y-3.2283
X7.6378Y-3.3465
X7.6378Y-3.4646
X7.7559Y-3.2283
X7.7559Y-3.3465
X7.7559Y-3.4646
T2
X2.9134Y-1.1575
X2.9134Y-1.2559
X3.3858Y-2.5591
X3.3858Y-2.6575
X3.8091Y-3.895
X3.8091Y-3.9934
X3.8287Y-2.2441
X3.8287Y-2.3425
X4.3822Y-1.3323
X4.3822Y-1.4323
X4.5818Y-2.6849
X4.5818Y-2.7849
X4.6457Y-5.5118
X4.6457Y-5.6118
X4.6816Y-4.5161
X4.6816Y-4.6161
X4.6895Y-3.6909
X4.6895Y-3.7909
X4.8874Y-1.3323
X4.8874Y-1.4323
T3
X2.5591Y-1.3528
X2.5591Y-1.4528
X2.5591Y-1.5528
X2.5591Y-1.6528
X2.5591Y-1.7528
X2.5591Y-1.8528
X2.5591Y-1.9528
X2.5591Y-2.0528
X2.5591Y-2.1528
X2.5591Y-2.2528
X2.5591Y-2.3528
X2.5591Y-2.4528
X2.5591Y-2.5528
X2.5591Y-2.6528
X2.5591Y-2.7528
X2.5591Y-2.8528
T4
X2.5953Y-3.0906
X2.5953Y-3.1906
X2.5953Y-3.2906
T5
X4.0882Y-1.3685
X4.0882Y-1.4685
X4.0882Y-1.5685
X4.0882Y-1.6685
X4.0882Y-1.7685
X4.0882Y-1.8685
X4.1882Y-1.3685
X4.1882Y-1.4685
X4.1882Y-1.5685
X4.1882Y-1.6685
X4.1882Y-1.7685
X4.1882Y-1.8685
X4.585Y-1.3685
X4.585Y-1.4685
X4.585Y-1.5685
X4.585Y-1.6685
X4.585Y-1.7685
X4.585Y-1.8685
X4.685Y-1.3685
X4.685Y-1.4685
X4.685Y-1.5685
X4.685Y-1.6685
X4.685Y-1.7685
X4.685Y-1.8685
X5.0969Y-1.3717
X5.0969Y-1.4717
X5.0969Y-1.5717
X5.0969Y-1.6717
X5.0969Y-1.7717
X5.0969Y-1.8717
X5.1969Y-1.3717
X5.1969Y-1.4717
X5.1969Y-1.5717
X5.1969Y-1.6717
X5.1969Y-1.7717
X5.1969Y-1.8717
T6
X6.6693Y-3.7008
X6.6693Y-4.2913
X6.6693Y-4.8821
X6.6693Y-5.4726
X6.976Y-4.8821
X6.976Y-5.4726
X6.9764Y-3.7008
X6.9764Y-4.2913
X7.2793Y-4.8821
X7.2793Y-5.4726
X7.2835Y-3.7008
X7.2835Y-4.2913
T7
X3.2087Y-3.5386
X3.2087Y-3.7036
X3.2087Y-3.8686
X3.2087Y-4.0336
X3.2087Y-4.1986
X3.2087Y-4.3636
X3.2087Y-4.5286
X3.2087Y-4.6936
X3.2087Y-4.8586
X3.2087Y-5.0236
X3.2087Y-5.1886
X3.2087Y-5.3536
X3.4257Y-3.5386
X3.4257Y-3.7036
X3.4257Y-3.8686
X3.4257Y-4.0336
X3.4257Y-4.1986
X3.4257Y-4.3636
X3.4257Y-4.5286
X3.4257Y-4.6936
X3.4257Y-4.8586
X3.4257Y-5.0236
X3.4257Y-5.1886
X3.4257Y-5.3536
T9
X7.969Y-1.4748
X7.969Y-1.6748
X7.9749Y-2.126
X7.9749Y-2.326
X8.0102Y-4.152
X8.0102Y-4.352
X8.0102Y-4.9
X8.0102Y-5.1
X8.169Y-1.4748
X8.169Y-1.6748
X8.1749Y-2.126
X8.1749Y-2.326
X8.2102Y-4.152
X8.2102Y-4.352
X8.2102Y-4.9
X8.2102Y-5.1
T10
X6.4961Y-1.4567
X7.0134Y-1.4567
T11
X2.5591Y-1.1417
X2.5591Y-6.1024
X5.4823Y-1.1417
X8.2677Y-1.1417
X8.2677Y-3.5531
X8.2677Y-6.1024
T12
X5.4724Y-3.2807
X5.4724Y-3.9067
X5.4724Y-5.328
X5.4724Y-5.9539
X5.5485Y-4.4093
X5.5485Y-4.8573
X5.5535Y-2.3544
X5.5535Y-2.8025
X5.9205Y-3.2807
X5.9205Y-3.9067
X5.9205Y-5.328
X5.9205Y-5.9539
X6.1745Y-4.4093
X6.1745Y-4.8573
X6.1795Y-2.3544
X6.1795Y-2.8025
T13
X3.2267Y-3.3516
X3.2267Y-5.5406
T8
G00X5.4696Y-4.5303
M15
G01X5.6058Y-4.5303
M16
G05
G00X5.4746Y-2.4755
M15
G01X5.6108Y-2.4755
M16
G05
G00X5.5935Y-3.8518
M15
G01X5.5935Y-3.988
M16
G05
G00X5.5935Y-5.899
M15
G01X5.5935Y-6.0352
M16
G05
G00X5.7994Y-3.2018
M15
G01X5.7994Y-3.338
M16
G05
G00X5.7994Y-5.249
M15
G01X5.7994Y-5.3852
M16
G05
G00X6.1196Y-4.7362
M15
G01X6.2558Y-4.7362
M16
G05
G00X6.1246Y-2.6814
M15
G01X6.2608Y-2.6814
M16
G05
T0
M30
