%TF.GenerationSoftware,KiCad,Pcbnew,7.0.5*%
%TF.CreationDate,2023-09-24T16:41:28-07:00*%
%TF.ProjectId,FullSchematic,46756c6c-5363-4686-956d-617469632e6b,rev?*%
%TF.SameCoordinates,Original*%
%TF.FileFunction,Soldermask,Top*%
%TF.FilePolarity,Negative*%
%FSLAX46Y46*%
G04 Gerber Fmt 4.6, Leading zero omitted, Abs format (unit mm)*
G04 Created by KiCad (PCBNEW 7.0.5) date 2023-09-24 16:41:28*
%MOMM*%
%LPD*%
G01*
G04 APERTURE LIST*
G04 Aperture macros list*
%AMRoundRect*
0 Rectangle with rounded corners*
0 $1 Rounding radius*
0 $2 $3 $4 $5 $6 $7 $8 $9 X,Y pos of 4 corners*
0 Add a 4 corners polygon primitive as box body*
4,1,4,$2,$3,$4,$5,$6,$7,$8,$9,$2,$3,0*
0 Add four circle primitives for the rounded corners*
1,1,$1+$1,$2,$3*
1,1,$1+$1,$4,$5*
1,1,$1+$1,$6,$7*
1,1,$1+$1,$8,$9*
0 Add four rect primitives between the rounded corners*
20,1,$1+$1,$2,$3,$4,$5,0*
20,1,$1+$1,$4,$5,$6,$7,0*
20,1,$1+$1,$6,$7,$8,$9,0*
20,1,$1+$1,$8,$9,$2,$3,0*%
G04 Aperture macros list end*
%ADD10RoundRect,0.200000X-0.200000X2.100000X-0.200000X-2.100000X0.200000X-2.100000X0.200000X2.100000X0*%
%ADD11R,10.800000X9.400000*%
%ADD12RoundRect,0.250000X0.312500X0.625000X-0.312500X0.625000X-0.312500X-0.625000X0.312500X-0.625000X0*%
%ADD13RoundRect,0.135000X-0.135000X-0.185000X0.135000X-0.185000X0.135000X0.185000X-0.135000X0.185000X0*%
%ADD14RoundRect,0.200000X0.200000X0.275000X-0.200000X0.275000X-0.200000X-0.275000X0.200000X-0.275000X0*%
%ADD15RoundRect,0.250000X-0.312500X-1.075000X0.312500X-1.075000X0.312500X1.075000X-0.312500X1.075000X0*%
%ADD16C,2.240000*%
%ADD17R,6.000000X2.500000*%
%ADD18RoundRect,0.250000X0.250000X0.475000X-0.250000X0.475000X-0.250000X-0.475000X0.250000X-0.475000X0*%
%ADD19RoundRect,0.250000X0.475000X-0.250000X0.475000X0.250000X-0.475000X0.250000X-0.475000X-0.250000X0*%
%ADD20C,3.900000*%
%ADD21C,7.000000*%
%ADD22C,1.400000*%
%ADD23RoundRect,0.250000X-0.650000X0.325000X-0.650000X-0.325000X0.650000X-0.325000X0.650000X0.325000X0*%
%ADD24R,0.900000X2.500000*%
%ADD25C,2.780000*%
%ADD26RoundRect,0.100000X-0.130000X-0.100000X0.130000X-0.100000X0.130000X0.100000X-0.130000X0.100000X0*%
%ADD27RoundRect,0.100000X-0.100000X0.130000X-0.100000X-0.130000X0.100000X-0.130000X0.100000X0.130000X0*%
%ADD28C,1.905000*%
%ADD29C,2.250000*%
%ADD30R,1.143000X0.762000*%
%ADD31C,2.550000*%
%ADD32RoundRect,0.062500X-0.062500X-0.350000X0.062500X-0.350000X0.062500X0.350000X-0.062500X0.350000X0*%
%ADD33RoundRect,0.062500X-0.350000X-0.062500X0.350000X-0.062500X0.350000X0.062500X-0.350000X0.062500X0*%
%ADD34R,1.000000X2.000000*%
%ADD35RoundRect,0.250000X-0.250000X-0.475000X0.250000X-0.475000X0.250000X0.475000X-0.250000X0.475000X0*%
%ADD36C,1.180000*%
%ADD37RoundRect,0.075000X-0.350000X-0.075000X0.350000X-0.075000X0.350000X0.075000X-0.350000X0.075000X0*%
%ADD38RoundRect,0.250000X-0.475000X0.250000X-0.475000X-0.250000X0.475000X-0.250000X0.475000X0.250000X0*%
%ADD39RoundRect,0.150000X-0.587500X-0.150000X0.587500X-0.150000X0.587500X0.150000X-0.587500X0.150000X0*%
%ADD40R,1.220000X0.650000*%
%ADD41R,1.700000X1.700000*%
%ADD42O,1.700000X1.700000*%
%ADD43RoundRect,0.250000X1.400000X1.000000X-1.400000X1.000000X-1.400000X-1.000000X1.400000X-1.000000X0*%
%ADD44RoundRect,0.250000X1.000000X-1.400000X1.000000X1.400000X-1.000000X1.400000X-1.000000X-1.400000X0*%
%ADD45RoundRect,0.180000X0.180000X-0.710000X0.180000X0.710000X-0.180000X0.710000X-0.180000X-0.710000X0*%
%ADD46R,1.600000X1.600000*%
%ADD47C,1.600000*%
%ADD48RoundRect,0.150000X-0.150000X0.587500X-0.150000X-0.587500X0.150000X-0.587500X0.150000X0.587500X0*%
%ADD49R,0.600000X2.200000*%
%ADD50R,2.500000X6.000000*%
%ADD51RoundRect,0.250000X-0.625000X0.312500X-0.625000X-0.312500X0.625000X-0.312500X0.625000X0.312500X0*%
%ADD52RoundRect,0.200000X-0.200000X-0.275000X0.200000X-0.275000X0.200000X0.275000X-0.200000X0.275000X0*%
%ADD53RoundRect,0.135000X0.185000X-0.135000X0.185000X0.135000X-0.185000X0.135000X-0.185000X-0.135000X0*%
%ADD54R,1.193800X2.006600*%
%ADD55C,1.500000*%
%ADD56RoundRect,0.150000X0.550000X-0.150000X0.550000X0.150000X-0.550000X0.150000X-0.550000X-0.150000X0*%
%ADD57RoundRect,0.250000X-1.075000X0.312500X-1.075000X-0.312500X1.075000X-0.312500X1.075000X0.312500X0*%
%ADD58RoundRect,0.250000X-0.325000X-1.100000X0.325000X-1.100000X0.325000X1.100000X-0.325000X1.100000X0*%
%ADD59RoundRect,0.135000X0.135000X0.185000X-0.135000X0.185000X-0.135000X-0.185000X0.135000X-0.185000X0*%
%ADD60RoundRect,0.200000X-0.275000X0.200000X-0.275000X-0.200000X0.275000X-0.200000X0.275000X0.200000X0*%
%ADD61RoundRect,0.225000X-0.375000X0.225000X-0.375000X-0.225000X0.375000X-0.225000X0.375000X0.225000X0*%
G04 APERTURE END LIST*
D10*
%TO.C,U6*%
X122374615Y-140062270D03*
X123644615Y-140062270D03*
X124914615Y-140062270D03*
X127454615Y-140062270D03*
X128724615Y-140062270D03*
X129994615Y-140062270D03*
D11*
X126184615Y-130912270D03*
%TD*%
D12*
%TO.C,R24*%
X75585000Y-68060000D03*
X72660000Y-68060000D03*
%TD*%
D13*
%TO.C,R20*%
X170960000Y-56665000D03*
X171980000Y-56665000D03*
%TD*%
D14*
%TO.C,R19*%
X172620000Y-59960000D03*
X170970000Y-59960000D03*
%TD*%
D15*
%TO.C,R6*%
X108700000Y-70699000D03*
X111625000Y-70699000D03*
%TD*%
D16*
%TO.C,L1*%
X141060000Y-59803000D03*
X141060000Y-71183000D03*
X156960000Y-59803000D03*
X156960000Y-71183000D03*
D17*
X140785000Y-62878000D03*
X157295000Y-68108000D03*
%TD*%
D18*
%TO.C,C32*%
X80820000Y-39384581D03*
X78920000Y-39384581D03*
%TD*%
D19*
%TO.C,C25*%
X84200000Y-31400000D03*
X84200000Y-29500000D03*
%TD*%
D20*
%TO.C,REF\u002A\u002A*%
X210000000Y-29000000D03*
D21*
X210000000Y-29000000D03*
%TD*%
D10*
%TO.C,U3*%
X123320000Y-71352000D03*
X124590000Y-71352000D03*
X125860000Y-71352000D03*
X128400000Y-71352000D03*
X129670000Y-71352000D03*
X130940000Y-71352000D03*
D11*
X127130000Y-62202000D03*
%TD*%
D22*
%TO.C,TP6*%
X118913000Y-117250000D03*
X118913000Y-114710000D03*
%TD*%
%TO.C,TP2*%
X124140000Y-36380000D03*
X124140000Y-33840000D03*
%TD*%
D23*
%TO.C,C7*%
X113870000Y-75984000D03*
X113870000Y-78934000D03*
%TD*%
D24*
%TO.C,J1*%
X175070000Y-40850000D03*
X172570000Y-40850000D03*
X170570000Y-40850000D03*
X168070000Y-40850000D03*
D25*
X178140000Y-37000000D03*
X165000000Y-37000000D03*
%TD*%
D14*
%TO.C,R15*%
X180363000Y-69395000D03*
X178713000Y-69395000D03*
%TD*%
D26*
%TO.C,R10*%
X169260000Y-71700000D03*
X169900000Y-71700000D03*
%TD*%
D27*
%TO.C,R2*%
X157273000Y-44380000D03*
X157273000Y-45020000D03*
%TD*%
D28*
%TO.C,J2*%
X87011800Y-89881000D03*
X87011800Y-94072000D03*
X87011800Y-98263000D03*
X87011800Y-102454000D03*
X87011800Y-106645000D03*
X87011800Y-110836000D03*
X87011800Y-115027000D03*
X87011800Y-119218000D03*
X87011800Y-123409000D03*
X87011800Y-127600000D03*
X87011800Y-131791000D03*
X87011800Y-135982000D03*
X81500000Y-89881000D03*
X81500000Y-94072000D03*
X81500000Y-98263000D03*
X81500000Y-102454000D03*
X81500000Y-106645000D03*
X81500000Y-110836000D03*
X81500000Y-115027000D03*
X81500000Y-119218000D03*
X81500000Y-123409000D03*
X81500000Y-127600000D03*
X81500000Y-131791000D03*
X81500000Y-135982000D03*
%TD*%
D27*
%TO.C,R13*%
X187333000Y-71985000D03*
X187333000Y-72625000D03*
%TD*%
D29*
%TO.C,C13*%
X177200000Y-94000000D03*
X177200000Y-109000000D03*
%TD*%
D30*
%TO.C,U8*%
X179500000Y-62500000D03*
X179500000Y-61230000D03*
X179500000Y-59960000D03*
X179500000Y-58690000D03*
X174293000Y-58690000D03*
X174293000Y-59960000D03*
X174293000Y-61230000D03*
X174293000Y-62500000D03*
%TD*%
D20*
%TO.C,REF\u002A\u002A*%
X139250000Y-29000000D03*
D21*
X139250000Y-29000000D03*
%TD*%
D31*
%TO.C,J4*%
X203460000Y-129540000D03*
X203460000Y-124460000D03*
X208540000Y-129540000D03*
X208540000Y-124460000D03*
%TD*%
D32*
%TO.C,U14*%
X72562500Y-53162500D03*
D33*
X71625000Y-53600000D03*
X71625000Y-54100000D03*
X71625000Y-54600000D03*
X71625000Y-55100000D03*
X71625000Y-55600000D03*
X71625000Y-56100000D03*
D32*
X72562500Y-56537500D03*
X73062500Y-56537500D03*
D33*
X74000000Y-56100000D03*
X74000000Y-55600000D03*
X74000000Y-55100000D03*
X74000000Y-54600000D03*
X74000000Y-54100000D03*
X74000000Y-53600000D03*
D32*
X73062500Y-53162500D03*
D34*
X72812500Y-54850000D03*
%TD*%
D35*
%TO.C,C26*%
X79600000Y-72000000D03*
X81500000Y-72000000D03*
%TD*%
D36*
%TO.C,J10*%
X65000000Y-34360000D03*
X65000000Y-36900000D03*
X65000000Y-39440000D03*
X65000000Y-41980000D03*
X65000000Y-44520000D03*
X65000000Y-47060000D03*
X65000000Y-49600000D03*
X65000000Y-52140000D03*
X65000000Y-54680000D03*
X65000000Y-57220000D03*
X65000000Y-59760000D03*
X65000000Y-62300000D03*
X65000000Y-64840000D03*
X65000000Y-67380000D03*
X65000000Y-69920000D03*
X65000000Y-72460000D03*
%TD*%
D37*
%TO.C,U12*%
X80900000Y-33280000D03*
X80900000Y-33780000D03*
X80900000Y-34280000D03*
X80900000Y-34780000D03*
X84000000Y-34780000D03*
X84000000Y-34280000D03*
X84000000Y-33780000D03*
X84000000Y-33280000D03*
%TD*%
D38*
%TO.C,C6*%
X143713000Y-46535000D03*
X143713000Y-48435000D03*
%TD*%
D27*
%TO.C,R5*%
X142000000Y-39235000D03*
X142000000Y-39875000D03*
%TD*%
D29*
%TO.C,C15*%
X169400000Y-94000000D03*
X169400000Y-109000000D03*
%TD*%
D39*
%TO.C,Q2*%
X172148000Y-71880000D03*
X172148000Y-73780000D03*
X174023000Y-72830000D03*
%TD*%
D40*
%TO.C,Q3*%
X72785000Y-84677500D03*
X72785000Y-82777500D03*
X70165000Y-83727500D03*
%TD*%
D35*
%TO.C,C23*%
X84640419Y-55750000D03*
X86540419Y-55750000D03*
%TD*%
D41*
%TO.C,J5*%
X119000000Y-47460000D03*
D42*
X119000000Y-44920000D03*
X119000000Y-42380000D03*
X119000000Y-39840000D03*
X119000000Y-37300000D03*
X119000000Y-34760000D03*
X116460000Y-47460000D03*
X116460000Y-44920000D03*
X116460000Y-42380000D03*
X116460000Y-39840000D03*
X116460000Y-37300000D03*
X116460000Y-34760000D03*
%TD*%
D43*
%TO.C,D2*%
X107574615Y-109612000D03*
X107574615Y-102812000D03*
%TD*%
D18*
%TO.C,C30*%
X81468419Y-56233000D03*
X79568419Y-56233000D03*
%TD*%
D44*
%TO.C,D4*%
X110200000Y-133250000D03*
X117000000Y-133250000D03*
%TD*%
D22*
%TO.C,TP1*%
X111308000Y-36380000D03*
X111308000Y-33840000D03*
%TD*%
D18*
%TO.C,C29*%
X74412500Y-58537500D03*
X72512500Y-58537500D03*
%TD*%
D19*
%TO.C,C33*%
X69000000Y-36280000D03*
X69000000Y-34380000D03*
%TD*%
D45*
%TO.C,U1*%
X107472000Y-79279000D03*
X108742000Y-79279000D03*
X110012000Y-79279000D03*
X111282000Y-79279000D03*
X111282000Y-74599000D03*
X110012000Y-74599000D03*
X108742000Y-74599000D03*
X107472000Y-74599000D03*
%TD*%
D37*
%TO.C,U13*%
X80910000Y-41084581D03*
X80910000Y-41584581D03*
X80910000Y-42084581D03*
X80910000Y-42584581D03*
X84010000Y-42584581D03*
X84010000Y-42084581D03*
X84010000Y-41584581D03*
X84010000Y-41084581D03*
%TD*%
D46*
%TO.C,C11*%
X97250000Y-59500000D03*
D47*
X97250000Y-57000000D03*
%TD*%
D48*
%TO.C,Q1*%
X76012500Y-108062500D03*
X74112500Y-108062500D03*
X75062500Y-109937500D03*
%TD*%
D38*
%TO.C,C5*%
X157263000Y-46815000D03*
X157263000Y-48715000D03*
%TD*%
D31*
%TO.C,J8*%
X202562000Y-59080000D03*
X202562000Y-54000000D03*
X207642000Y-59080000D03*
X207642000Y-54000000D03*
%TD*%
D44*
%TO.C,D3*%
X109700000Y-86250000D03*
X116500000Y-86250000D03*
%TD*%
D18*
%TO.C,C31*%
X81073451Y-47700000D03*
X79173451Y-47700000D03*
%TD*%
D49*
%TO.C,U7*%
X176573000Y-82005000D03*
X177843000Y-82005000D03*
X179113000Y-82005000D03*
X180383000Y-82005000D03*
X181653000Y-82005000D03*
X182923000Y-82005000D03*
X184193000Y-82005000D03*
X185463000Y-82005000D03*
X185463000Y-72805000D03*
X184193000Y-72805000D03*
X182923000Y-72805000D03*
X181653000Y-72805000D03*
X180383000Y-72805000D03*
X179113000Y-72805000D03*
X177843000Y-72805000D03*
X176573000Y-72805000D03*
%TD*%
D27*
%TO.C,R4*%
X143370000Y-31935000D03*
X143370000Y-32575000D03*
%TD*%
D29*
%TO.C,C18*%
X177190000Y-139005000D03*
X177190000Y-124005000D03*
%TD*%
D16*
%TO.C,L4*%
X150380000Y-135330002D03*
X139000000Y-135330002D03*
X150380000Y-151230002D03*
X139000000Y-151230002D03*
D50*
X147305000Y-135055002D03*
X142075000Y-151565002D03*
%TD*%
D51*
%TO.C,R14*%
X190473000Y-72750000D03*
X190473000Y-75675000D03*
%TD*%
D44*
%TO.C,D1*%
X107487000Y-61487000D03*
X114287000Y-61487000D03*
%TD*%
D37*
%TO.C,U11*%
X81450000Y-57850000D03*
X81450000Y-58350000D03*
X81450000Y-58850000D03*
X81450000Y-59350000D03*
X84550000Y-59350000D03*
X84550000Y-58850000D03*
X84550000Y-58350000D03*
X84550000Y-57850000D03*
%TD*%
D52*
%TO.C,R22*%
X71265000Y-79737500D03*
X72915000Y-79737500D03*
%TD*%
D22*
%TO.C,TP4*%
X118000000Y-140000000D03*
X118000000Y-142540000D03*
%TD*%
D31*
%TO.C,J7*%
X202412000Y-42540000D03*
X202412000Y-37460000D03*
X207492000Y-42540000D03*
X207492000Y-37460000D03*
%TD*%
D53*
%TO.C,R18*%
X186980000Y-61020000D03*
X186980000Y-60000000D03*
%TD*%
D45*
%TO.C,U2*%
X108534615Y-126292270D03*
X109804615Y-126292270D03*
X111074615Y-126292270D03*
X112344615Y-126292270D03*
X112344615Y-121612270D03*
X111074615Y-121612270D03*
X109804615Y-121612270D03*
X108534615Y-121612270D03*
%TD*%
D22*
%TO.C,TP5*%
X119113000Y-93750000D03*
X119113000Y-96290000D03*
%TD*%
D54*
%TO.C,SW1*%
X148210000Y-46450000D03*
X150750000Y-46450000D03*
X153290000Y-46450000D03*
X153290000Y-34450004D03*
X150750000Y-34450004D03*
X148210000Y-34450004D03*
%TD*%
D27*
%TO.C,R23*%
X77200000Y-43185000D03*
X77200000Y-43825000D03*
%TD*%
D29*
%TO.C,C16*%
X169400000Y-139005000D03*
X169400000Y-124005000D03*
%TD*%
D46*
%TO.C,C12*%
X96750000Y-101432380D03*
D47*
X96750000Y-98932380D03*
%TD*%
D51*
%TO.C,R21*%
X76040000Y-82845000D03*
X76040000Y-85770000D03*
%TD*%
D55*
%TO.C,RV1*%
X65920000Y-78500000D03*
X65920000Y-81040000D03*
X65920000Y-83580000D03*
%TD*%
D53*
%TO.C,R17*%
X181643000Y-69515000D03*
X181643000Y-68495000D03*
%TD*%
D20*
%TO.C,REF\u002A\u002A*%
X65000000Y-155000000D03*
D21*
X65000000Y-155000000D03*
%TD*%
D37*
%TO.C,U10*%
X81140685Y-49600000D03*
X81140685Y-50100000D03*
X81140685Y-50600000D03*
X81140685Y-51100000D03*
X84240685Y-51100000D03*
X84240685Y-50600000D03*
X84240685Y-50100000D03*
X84240685Y-49600000D03*
%TD*%
D12*
%TO.C,R25*%
X75585000Y-64770000D03*
X72660000Y-64770000D03*
%TD*%
D29*
%TO.C,C17*%
X185000000Y-94000000D03*
X185000000Y-109000000D03*
%TD*%
D20*
%TO.C,REF\u002A\u002A*%
X210000000Y-155000000D03*
D21*
X210000000Y-155000000D03*
%TD*%
D56*
%TO.C,U9*%
X79700000Y-74460000D03*
X79700000Y-75730000D03*
X79700000Y-77000000D03*
X79700000Y-78270000D03*
X85000000Y-78270000D03*
X85000000Y-77000000D03*
X85000000Y-75730000D03*
X85000000Y-74460000D03*
%TD*%
D15*
%TO.C,R8*%
X109813000Y-117212000D03*
X112738000Y-117212000D03*
%TD*%
D19*
%TO.C,C21*%
X184500000Y-60000000D03*
X184500000Y-58100000D03*
%TD*%
D38*
%TO.C,C20*%
X181900000Y-61200000D03*
X181900000Y-63100000D03*
%TD*%
D16*
%TO.C,L3*%
X150380000Y-83330002D03*
X139000000Y-83330002D03*
X150380000Y-99230002D03*
X139000000Y-99230002D03*
D50*
X147305000Y-83055002D03*
X142075000Y-99565002D03*
%TD*%
D57*
%TO.C,R12*%
X169303000Y-73830000D03*
X169303000Y-76755000D03*
%TD*%
D58*
%TO.C,C10*%
X108338000Y-113212000D03*
X111288000Y-113212000D03*
%TD*%
D16*
%TO.C,L2*%
X140933000Y-111995002D03*
X140933000Y-123375002D03*
X156833000Y-111995002D03*
X156833000Y-123375002D03*
D17*
X140658000Y-115070002D03*
X157168000Y-120300002D03*
%TD*%
D20*
%TO.C,REF\u002A\u002A*%
X65000000Y-29000000D03*
D21*
X65000000Y-29000000D03*
%TD*%
D38*
%TO.C,C3*%
X143400000Y-34465000D03*
X143400000Y-36365000D03*
%TD*%
D35*
%TO.C,C27*%
X84020000Y-39374581D03*
X85920000Y-39374581D03*
%TD*%
D23*
%TO.C,C8*%
X114824615Y-122387270D03*
X114824615Y-125337270D03*
%TD*%
D58*
%TO.C,C9*%
X107425000Y-66699000D03*
X110375000Y-66699000D03*
%TD*%
D22*
%TO.C,TP3*%
X116377000Y-70737000D03*
X116377000Y-68197000D03*
%TD*%
D35*
%TO.C,C24*%
X84273451Y-47600000D03*
X86173451Y-47600000D03*
%TD*%
D59*
%TO.C,R16*%
X177193000Y-69355000D03*
X176173000Y-69355000D03*
%TD*%
D29*
%TO.C,C14*%
X184894000Y-139005000D03*
X184894000Y-124005000D03*
%TD*%
D41*
%TO.C,J6*%
X132000000Y-47540000D03*
D42*
X132000000Y-45000000D03*
X132000000Y-42460000D03*
X132000000Y-39920000D03*
X132000000Y-37380000D03*
X132000000Y-34840000D03*
X129460000Y-47540000D03*
X129460000Y-45000000D03*
X129460000Y-42460000D03*
X129460000Y-39920000D03*
X129460000Y-37380000D03*
X129460000Y-34840000D03*
%TD*%
D27*
%TO.C,R3*%
X157393000Y-32475000D03*
X157393000Y-33115000D03*
%TD*%
D38*
%TO.C,C22*%
X171796500Y-61617200D03*
X171796500Y-63517200D03*
%TD*%
D31*
%TO.C,J3*%
X203460000Y-110540000D03*
X203460000Y-105460000D03*
X208540000Y-110540000D03*
X208540000Y-105460000D03*
%TD*%
D46*
%TO.C,C2*%
X74000000Y-31900000D03*
D47*
X74000000Y-29400000D03*
%TD*%
D38*
%TO.C,C4*%
X157423000Y-34355000D03*
X157423000Y-36255000D03*
%TD*%
D46*
%TO.C,C1*%
X86000000Y-65000000D03*
D47*
X86000000Y-67500000D03*
%TD*%
D15*
%TO.C,R9*%
X112500000Y-140000000D03*
X115425000Y-140000000D03*
%TD*%
D60*
%TO.C,R11*%
X174223000Y-66800000D03*
X174223000Y-68450000D03*
%TD*%
D27*
%TO.C,R1*%
X143643000Y-44285000D03*
X143643000Y-44925000D03*
%TD*%
D15*
%TO.C,R7*%
X112850500Y-93712000D03*
X115775500Y-93712000D03*
%TD*%
D19*
%TO.C,C28*%
X80800000Y-31400000D03*
X80800000Y-29500000D03*
%TD*%
D10*
%TO.C,U4*%
X122922000Y-93507000D03*
X124192000Y-93507000D03*
X125462000Y-93507000D03*
X128002000Y-93507000D03*
X129272000Y-93507000D03*
X130542000Y-93507000D03*
D11*
X126732000Y-84357000D03*
%TD*%
D38*
%TO.C,C19*%
X190423000Y-77505000D03*
X190423000Y-79405000D03*
%TD*%
D20*
%TO.C,REF\u002A\u002A*%
X210000000Y-90250000D03*
D21*
X210000000Y-90250000D03*
%TD*%
D41*
%TO.C,J9*%
X103840000Y-34760000D03*
D42*
X103840000Y-37300000D03*
X103840000Y-39840000D03*
X103840000Y-42380000D03*
X103840000Y-44920000D03*
X103840000Y-47460000D03*
X106380000Y-34760000D03*
X106380000Y-37300000D03*
X106380000Y-39840000D03*
X106380000Y-42380000D03*
X106380000Y-44920000D03*
X106380000Y-47460000D03*
%TD*%
D10*
%TO.C,U5*%
X122454615Y-117437270D03*
X123724615Y-117437270D03*
X124994615Y-117437270D03*
X127534615Y-117437270D03*
X128804615Y-117437270D03*
X130074615Y-117437270D03*
D11*
X126264615Y-108287270D03*
%TD*%
D61*
%TO.C,D5*%
X87290000Y-74840000D03*
X87290000Y-78140000D03*
%TD*%
M02*
