%TF.GenerationSoftware,KiCad,Pcbnew,7.0.5*%
%TF.CreationDate,2023-09-24T16:41:28-07:00*%
%TF.ProjectId,FullSchematic,46756c6c-5363-4686-956d-617469632e6b,rev?*%
%TF.SameCoordinates,Original*%
%TF.FileFunction,Paste,Top*%
%TF.FilePolarity,Positive*%
%FSLAX46Y46*%
G04 Gerber Fmt 4.6, Leading zero omitted, Abs format (unit mm)*
G04 Created by KiCad (PCBNEW 7.0.5) date 2023-09-24 16:41:28*
%MOMM*%
%LPD*%
G01*
G04 APERTURE LIST*
G04 Aperture macros list*
%AMRoundRect*
0 Rectangle with rounded corners*
0 $1 Rounding radius*
0 $2 $3 $4 $5 $6 $7 $8 $9 X,Y pos of 4 corners*
0 Add a 4 corners polygon primitive as box body*
4,1,4,$2,$3,$4,$5,$6,$7,$8,$9,$2,$3,0*
0 Add four circle primitives for the rounded corners*
1,1,$1+$1,$2,$3*
1,1,$1+$1,$4,$5*
1,1,$1+$1,$6,$7*
1,1,$1+$1,$8,$9*
0 Add four rect primitives between the rounded corners*
20,1,$1+$1,$2,$3,$4,$5,0*
20,1,$1+$1,$4,$5,$6,$7,0*
20,1,$1+$1,$6,$7,$8,$9,0*
20,1,$1+$1,$8,$9,$2,$3,0*%
G04 Aperture macros list end*
%ADD10RoundRect,0.200000X-0.200000X2.100000X-0.200000X-2.100000X0.200000X-2.100000X0.200000X2.100000X0*%
%ADD11R,10.800000X9.400000*%
%ADD12RoundRect,0.250000X0.312500X0.625000X-0.312500X0.625000X-0.312500X-0.625000X0.312500X-0.625000X0*%
%ADD13RoundRect,0.135000X-0.135000X-0.185000X0.135000X-0.185000X0.135000X0.185000X-0.135000X0.185000X0*%
%ADD14RoundRect,0.200000X0.200000X0.275000X-0.200000X0.275000X-0.200000X-0.275000X0.200000X-0.275000X0*%
%ADD15RoundRect,0.250000X-0.312500X-1.075000X0.312500X-1.075000X0.312500X1.075000X-0.312500X1.075000X0*%
%ADD16RoundRect,0.250000X0.250000X0.475000X-0.250000X0.475000X-0.250000X-0.475000X0.250000X-0.475000X0*%
%ADD17RoundRect,0.250000X0.475000X-0.250000X0.475000X0.250000X-0.475000X0.250000X-0.475000X-0.250000X0*%
%ADD18RoundRect,0.250000X-0.650000X0.325000X-0.650000X-0.325000X0.650000X-0.325000X0.650000X0.325000X0*%
%ADD19R,0.900000X2.500000*%
%ADD20RoundRect,0.079500X-0.079500X-0.100500X0.079500X-0.100500X0.079500X0.100500X-0.079500X0.100500X0*%
%ADD21RoundRect,0.079500X-0.100500X0.079500X-0.100500X-0.079500X0.100500X-0.079500X0.100500X0.079500X0*%
%ADD22R,1.143000X0.762000*%
%ADD23RoundRect,0.202500X-0.202500X-0.202500X0.202500X-0.202500X0.202500X0.202500X-0.202500X0.202500X0*%
%ADD24RoundRect,0.062500X-0.062500X-0.350000X0.062500X-0.350000X0.062500X0.350000X-0.062500X0.350000X0*%
%ADD25RoundRect,0.062500X-0.350000X-0.062500X0.350000X-0.062500X0.350000X0.062500X-0.350000X0.062500X0*%
%ADD26RoundRect,0.250000X-0.250000X-0.475000X0.250000X-0.475000X0.250000X0.475000X-0.250000X0.475000X0*%
%ADD27RoundRect,0.075000X-0.350000X-0.075000X0.350000X-0.075000X0.350000X0.075000X-0.350000X0.075000X0*%
%ADD28RoundRect,0.250000X-0.475000X0.250000X-0.475000X-0.250000X0.475000X-0.250000X0.475000X0.250000X0*%
%ADD29RoundRect,0.150000X-0.587500X-0.150000X0.587500X-0.150000X0.587500X0.150000X-0.587500X0.150000X0*%
%ADD30R,1.220000X0.650000*%
%ADD31RoundRect,0.250000X1.400000X1.000000X-1.400000X1.000000X-1.400000X-1.000000X1.400000X-1.000000X0*%
%ADD32RoundRect,0.250000X1.000000X-1.400000X1.000000X1.400000X-1.000000X1.400000X-1.000000X-1.400000X0*%
%ADD33RoundRect,0.180000X0.180000X-0.710000X0.180000X0.710000X-0.180000X0.710000X-0.180000X-0.710000X0*%
%ADD34RoundRect,0.150000X-0.150000X0.587500X-0.150000X-0.587500X0.150000X-0.587500X0.150000X0.587500X0*%
%ADD35R,0.600000X2.200000*%
%ADD36RoundRect,0.250000X-0.625000X0.312500X-0.625000X-0.312500X0.625000X-0.312500X0.625000X0.312500X0*%
%ADD37RoundRect,0.200000X-0.200000X-0.275000X0.200000X-0.275000X0.200000X0.275000X-0.200000X0.275000X0*%
%ADD38RoundRect,0.135000X0.185000X-0.135000X0.185000X0.135000X-0.185000X0.135000X-0.185000X-0.135000X0*%
%ADD39R,1.193800X2.006600*%
%ADD40RoundRect,0.150000X0.550000X-0.150000X0.550000X0.150000X-0.550000X0.150000X-0.550000X-0.150000X0*%
%ADD41RoundRect,0.250000X-1.075000X0.312500X-1.075000X-0.312500X1.075000X-0.312500X1.075000X0.312500X0*%
%ADD42RoundRect,0.250000X-0.325000X-1.100000X0.325000X-1.100000X0.325000X1.100000X-0.325000X1.100000X0*%
%ADD43RoundRect,0.135000X0.135000X0.185000X-0.135000X0.185000X-0.135000X-0.185000X0.135000X-0.185000X0*%
%ADD44RoundRect,0.200000X-0.275000X0.200000X-0.275000X-0.200000X0.275000X-0.200000X0.275000X0.200000X0*%
%ADD45RoundRect,0.225000X-0.375000X0.225000X-0.375000X-0.225000X0.375000X-0.225000X0.375000X0.225000X0*%
G04 APERTURE END LIST*
D10*
%TO.C,U6*%
X122374615Y-140062270D03*
X123644615Y-140062270D03*
X124914615Y-140062270D03*
X127454615Y-140062270D03*
X128724615Y-140062270D03*
X129994615Y-140062270D03*
D11*
X126184615Y-130912270D03*
%TD*%
D12*
%TO.C,R24*%
X75585000Y-68060000D03*
X72660000Y-68060000D03*
%TD*%
D13*
%TO.C,R20*%
X170960000Y-56665000D03*
X171980000Y-56665000D03*
%TD*%
D14*
%TO.C,R19*%
X172620000Y-59960000D03*
X170970000Y-59960000D03*
%TD*%
D15*
%TO.C,R6*%
X108700000Y-70699000D03*
X111625000Y-70699000D03*
%TD*%
D16*
%TO.C,C32*%
X80820000Y-39384581D03*
X78920000Y-39384581D03*
%TD*%
D17*
%TO.C,C25*%
X84200000Y-31400000D03*
X84200000Y-29500000D03*
%TD*%
D10*
%TO.C,U3*%
X123320000Y-71352000D03*
X124590000Y-71352000D03*
X125860000Y-71352000D03*
X128400000Y-71352000D03*
X129670000Y-71352000D03*
X130940000Y-71352000D03*
D11*
X127130000Y-62202000D03*
%TD*%
D18*
%TO.C,C7*%
X113870000Y-75984000D03*
X113870000Y-78934000D03*
%TD*%
D19*
%TO.C,J1*%
X175070000Y-40850000D03*
X172570000Y-40850000D03*
X170570000Y-40850000D03*
X168070000Y-40850000D03*
%TD*%
D14*
%TO.C,R15*%
X180363000Y-69395000D03*
X178713000Y-69395000D03*
%TD*%
D20*
%TO.C,R10*%
X169235000Y-71700000D03*
X169925000Y-71700000D03*
%TD*%
D21*
%TO.C,R2*%
X157273000Y-44355000D03*
X157273000Y-45045000D03*
%TD*%
%TO.C,R13*%
X187333000Y-71960000D03*
X187333000Y-72650000D03*
%TD*%
D22*
%TO.C,U8*%
X179500000Y-62500000D03*
X179500000Y-61230000D03*
X179500000Y-59960000D03*
X179500000Y-58690000D03*
X174293000Y-58690000D03*
X174293000Y-59960000D03*
X174293000Y-61230000D03*
X174293000Y-62500000D03*
%TD*%
D23*
%TO.C,U14*%
X72812500Y-54350000D03*
X72812500Y-55350000D03*
D24*
X72562500Y-53162500D03*
D25*
X71625000Y-53600000D03*
X71625000Y-54100000D03*
X71625000Y-54600000D03*
X71625000Y-55100000D03*
X71625000Y-55600000D03*
X71625000Y-56100000D03*
D24*
X72562500Y-56537500D03*
X73062500Y-56537500D03*
D25*
X74000000Y-56100000D03*
X74000000Y-55600000D03*
X74000000Y-55100000D03*
X74000000Y-54600000D03*
X74000000Y-54100000D03*
X74000000Y-53600000D03*
D24*
X73062500Y-53162500D03*
%TD*%
D26*
%TO.C,C26*%
X79600000Y-72000000D03*
X81500000Y-72000000D03*
%TD*%
D27*
%TO.C,U12*%
X80900000Y-33280000D03*
X80900000Y-33780000D03*
X80900000Y-34280000D03*
X80900000Y-34780000D03*
X84000000Y-34780000D03*
X84000000Y-34280000D03*
X84000000Y-33780000D03*
X84000000Y-33280000D03*
%TD*%
D28*
%TO.C,C6*%
X143713000Y-46535000D03*
X143713000Y-48435000D03*
%TD*%
D21*
%TO.C,R5*%
X142000000Y-39210000D03*
X142000000Y-39900000D03*
%TD*%
D29*
%TO.C,Q2*%
X172148000Y-71880000D03*
X172148000Y-73780000D03*
X174023000Y-72830000D03*
%TD*%
D30*
%TO.C,Q3*%
X72785000Y-84677500D03*
X72785000Y-82777500D03*
X70165000Y-83727500D03*
%TD*%
D26*
%TO.C,C23*%
X84640419Y-55750000D03*
X86540419Y-55750000D03*
%TD*%
D31*
%TO.C,D2*%
X107574615Y-109612000D03*
X107574615Y-102812000D03*
%TD*%
D16*
%TO.C,C30*%
X81468419Y-56233000D03*
X79568419Y-56233000D03*
%TD*%
D32*
%TO.C,D4*%
X110200000Y-133250000D03*
X117000000Y-133250000D03*
%TD*%
D16*
%TO.C,C29*%
X74412500Y-58537500D03*
X72512500Y-58537500D03*
%TD*%
D17*
%TO.C,C33*%
X69000000Y-36280000D03*
X69000000Y-34380000D03*
%TD*%
D33*
%TO.C,U1*%
X107472000Y-79279000D03*
X108742000Y-79279000D03*
X110012000Y-79279000D03*
X111282000Y-79279000D03*
X111282000Y-74599000D03*
X110012000Y-74599000D03*
X108742000Y-74599000D03*
X107472000Y-74599000D03*
%TD*%
D27*
%TO.C,U13*%
X80910000Y-41084581D03*
X80910000Y-41584581D03*
X80910000Y-42084581D03*
X80910000Y-42584581D03*
X84010000Y-42584581D03*
X84010000Y-42084581D03*
X84010000Y-41584581D03*
X84010000Y-41084581D03*
%TD*%
D34*
%TO.C,Q1*%
X76012500Y-108062500D03*
X74112500Y-108062500D03*
X75062500Y-109937500D03*
%TD*%
D28*
%TO.C,C5*%
X157263000Y-46815000D03*
X157263000Y-48715000D03*
%TD*%
D32*
%TO.C,D3*%
X109700000Y-86250000D03*
X116500000Y-86250000D03*
%TD*%
D16*
%TO.C,C31*%
X81073451Y-47700000D03*
X79173451Y-47700000D03*
%TD*%
D35*
%TO.C,U7*%
X176573000Y-82005000D03*
X177843000Y-82005000D03*
X179113000Y-82005000D03*
X180383000Y-82005000D03*
X181653000Y-82005000D03*
X182923000Y-82005000D03*
X184193000Y-82005000D03*
X185463000Y-82005000D03*
X185463000Y-72805000D03*
X184193000Y-72805000D03*
X182923000Y-72805000D03*
X181653000Y-72805000D03*
X180383000Y-72805000D03*
X179113000Y-72805000D03*
X177843000Y-72805000D03*
X176573000Y-72805000D03*
%TD*%
D21*
%TO.C,R4*%
X143370000Y-31910000D03*
X143370000Y-32600000D03*
%TD*%
D36*
%TO.C,R14*%
X190473000Y-72750000D03*
X190473000Y-75675000D03*
%TD*%
D32*
%TO.C,D1*%
X107487000Y-61487000D03*
X114287000Y-61487000D03*
%TD*%
D27*
%TO.C,U11*%
X81450000Y-57850000D03*
X81450000Y-58350000D03*
X81450000Y-58850000D03*
X81450000Y-59350000D03*
X84550000Y-59350000D03*
X84550000Y-58850000D03*
X84550000Y-58350000D03*
X84550000Y-57850000D03*
%TD*%
D37*
%TO.C,R22*%
X71265000Y-79737500D03*
X72915000Y-79737500D03*
%TD*%
D38*
%TO.C,R18*%
X186980000Y-61020000D03*
X186980000Y-60000000D03*
%TD*%
D33*
%TO.C,U2*%
X108534615Y-126292270D03*
X109804615Y-126292270D03*
X111074615Y-126292270D03*
X112344615Y-126292270D03*
X112344615Y-121612270D03*
X111074615Y-121612270D03*
X109804615Y-121612270D03*
X108534615Y-121612270D03*
%TD*%
D39*
%TO.C,SW1*%
X148210000Y-46450000D03*
X150750000Y-46450000D03*
X153290000Y-46450000D03*
X153290000Y-34450004D03*
X150750000Y-34450004D03*
X148210000Y-34450004D03*
%TD*%
D21*
%TO.C,R23*%
X77200000Y-43160000D03*
X77200000Y-43850000D03*
%TD*%
D36*
%TO.C,R21*%
X76040000Y-82845000D03*
X76040000Y-85770000D03*
%TD*%
D38*
%TO.C,R17*%
X181643000Y-69515000D03*
X181643000Y-68495000D03*
%TD*%
D27*
%TO.C,U10*%
X81140685Y-49600000D03*
X81140685Y-50100000D03*
X81140685Y-50600000D03*
X81140685Y-51100000D03*
X84240685Y-51100000D03*
X84240685Y-50600000D03*
X84240685Y-50100000D03*
X84240685Y-49600000D03*
%TD*%
D12*
%TO.C,R25*%
X75585000Y-64770000D03*
X72660000Y-64770000D03*
%TD*%
D40*
%TO.C,U9*%
X79700000Y-74460000D03*
X79700000Y-75730000D03*
X79700000Y-77000000D03*
X79700000Y-78270000D03*
X85000000Y-78270000D03*
X85000000Y-77000000D03*
X85000000Y-75730000D03*
X85000000Y-74460000D03*
%TD*%
D15*
%TO.C,R8*%
X109813000Y-117212000D03*
X112738000Y-117212000D03*
%TD*%
D17*
%TO.C,C21*%
X184500000Y-60000000D03*
X184500000Y-58100000D03*
%TD*%
D28*
%TO.C,C20*%
X181900000Y-61200000D03*
X181900000Y-63100000D03*
%TD*%
D41*
%TO.C,R12*%
X169303000Y-73830000D03*
X169303000Y-76755000D03*
%TD*%
D42*
%TO.C,C10*%
X108338000Y-113212000D03*
X111288000Y-113212000D03*
%TD*%
D28*
%TO.C,C3*%
X143400000Y-34465000D03*
X143400000Y-36365000D03*
%TD*%
D26*
%TO.C,C27*%
X84020000Y-39374581D03*
X85920000Y-39374581D03*
%TD*%
D18*
%TO.C,C8*%
X114824615Y-122387270D03*
X114824615Y-125337270D03*
%TD*%
D42*
%TO.C,C9*%
X107425000Y-66699000D03*
X110375000Y-66699000D03*
%TD*%
D26*
%TO.C,C24*%
X84273451Y-47600000D03*
X86173451Y-47600000D03*
%TD*%
D43*
%TO.C,R16*%
X177193000Y-69355000D03*
X176173000Y-69355000D03*
%TD*%
D21*
%TO.C,R3*%
X157393000Y-32450000D03*
X157393000Y-33140000D03*
%TD*%
D28*
%TO.C,C22*%
X171796500Y-61617200D03*
X171796500Y-63517200D03*
%TD*%
%TO.C,C4*%
X157423000Y-34355000D03*
X157423000Y-36255000D03*
%TD*%
D15*
%TO.C,R9*%
X112500000Y-140000000D03*
X115425000Y-140000000D03*
%TD*%
D44*
%TO.C,R11*%
X174223000Y-66800000D03*
X174223000Y-68450000D03*
%TD*%
D21*
%TO.C,R1*%
X143643000Y-44260000D03*
X143643000Y-44950000D03*
%TD*%
D15*
%TO.C,R7*%
X112850500Y-93712000D03*
X115775500Y-93712000D03*
%TD*%
D17*
%TO.C,C28*%
X80800000Y-31400000D03*
X80800000Y-29500000D03*
%TD*%
D10*
%TO.C,U4*%
X122922000Y-93507000D03*
X124192000Y-93507000D03*
X125462000Y-93507000D03*
X128002000Y-93507000D03*
X129272000Y-93507000D03*
X130542000Y-93507000D03*
D11*
X126732000Y-84357000D03*
%TD*%
D28*
%TO.C,C19*%
X190423000Y-77505000D03*
X190423000Y-79405000D03*
%TD*%
D10*
%TO.C,U5*%
X122454615Y-117437270D03*
X123724615Y-117437270D03*
X124994615Y-117437270D03*
X127534615Y-117437270D03*
X128804615Y-117437270D03*
X130074615Y-117437270D03*
D11*
X126264615Y-108287270D03*
%TD*%
D45*
%TO.C,D5*%
X87290000Y-74840000D03*
X87290000Y-78140000D03*
%TD*%
M02*
