%TF.GenerationSoftware,KiCad,Pcbnew,7.0.5*%
%TF.CreationDate,2023-09-24T16:41:28-07:00*%
%TF.ProjectId,FullSchematic,46756c6c-5363-4686-956d-617469632e6b,rev?*%
%TF.SameCoordinates,Original*%
%TF.FileFunction,Soldermask,Bot*%
%TF.FilePolarity,Negative*%
%FSLAX46Y46*%
G04 Gerber Fmt 4.6, Leading zero omitted, Abs format (unit mm)*
G04 Created by KiCad (PCBNEW 7.0.5) date 2023-09-24 16:41:28*
%MOMM*%
%LPD*%
G01*
G04 APERTURE LIST*
%ADD10C,2.240000*%
%ADD11R,6.000000X2.500000*%
%ADD12C,3.900000*%
%ADD13C,7.000000*%
%ADD14C,1.400000*%
%ADD15C,2.780000*%
%ADD16C,1.905000*%
%ADD17C,2.250000*%
%ADD18C,2.550000*%
%ADD19C,1.180000*%
%ADD20R,1.700000X1.700000*%
%ADD21O,1.700000X1.700000*%
%ADD22R,1.600000X1.600000*%
%ADD23C,1.600000*%
%ADD24R,2.500000X6.000000*%
%ADD25C,1.500000*%
G04 APERTURE END LIST*
D10*
%TO.C,L1*%
X141060000Y-59803000D03*
X141060000Y-71183000D03*
X156960000Y-59803000D03*
X156960000Y-71183000D03*
D11*
X140785000Y-62878000D03*
X157295000Y-68108000D03*
%TD*%
D12*
%TO.C,REF\u002A\u002A*%
X210000000Y-29000000D03*
D13*
X210000000Y-29000000D03*
%TD*%
D14*
%TO.C,TP6*%
X118913000Y-117250000D03*
X118913000Y-114710000D03*
%TD*%
%TO.C,TP2*%
X124140000Y-36380000D03*
X124140000Y-33840000D03*
%TD*%
D15*
%TO.C,J1*%
X178140000Y-37000000D03*
X165000000Y-37000000D03*
%TD*%
D16*
%TO.C,J2*%
X87011800Y-89881000D03*
X87011800Y-94072000D03*
X87011800Y-98263000D03*
X87011800Y-102454000D03*
X87011800Y-106645000D03*
X87011800Y-110836000D03*
X87011800Y-115027000D03*
X87011800Y-119218000D03*
X87011800Y-123409000D03*
X87011800Y-127600000D03*
X87011800Y-131791000D03*
X87011800Y-135982000D03*
X81500000Y-89881000D03*
X81500000Y-94072000D03*
X81500000Y-98263000D03*
X81500000Y-102454000D03*
X81500000Y-106645000D03*
X81500000Y-110836000D03*
X81500000Y-115027000D03*
X81500000Y-119218000D03*
X81500000Y-123409000D03*
X81500000Y-127600000D03*
X81500000Y-131791000D03*
X81500000Y-135982000D03*
%TD*%
D17*
%TO.C,C13*%
X177200000Y-94000000D03*
X177200000Y-109000000D03*
%TD*%
D12*
%TO.C,REF\u002A\u002A*%
X139250000Y-29000000D03*
D13*
X139250000Y-29000000D03*
%TD*%
D18*
%TO.C,J4*%
X203460000Y-129540000D03*
X203460000Y-124460000D03*
X208540000Y-129540000D03*
X208540000Y-124460000D03*
%TD*%
D19*
%TO.C,J10*%
X65000000Y-34360000D03*
X65000000Y-36900000D03*
X65000000Y-39440000D03*
X65000000Y-41980000D03*
X65000000Y-44520000D03*
X65000000Y-47060000D03*
X65000000Y-49600000D03*
X65000000Y-52140000D03*
X65000000Y-54680000D03*
X65000000Y-57220000D03*
X65000000Y-59760000D03*
X65000000Y-62300000D03*
X65000000Y-64840000D03*
X65000000Y-67380000D03*
X65000000Y-69920000D03*
X65000000Y-72460000D03*
%TD*%
D17*
%TO.C,C15*%
X169400000Y-94000000D03*
X169400000Y-109000000D03*
%TD*%
D20*
%TO.C,J5*%
X119000000Y-47460000D03*
D21*
X119000000Y-44920000D03*
X119000000Y-42380000D03*
X119000000Y-39840000D03*
X119000000Y-37300000D03*
X119000000Y-34760000D03*
X116460000Y-47460000D03*
X116460000Y-44920000D03*
X116460000Y-42380000D03*
X116460000Y-39840000D03*
X116460000Y-37300000D03*
X116460000Y-34760000D03*
%TD*%
D14*
%TO.C,TP1*%
X111308000Y-36380000D03*
X111308000Y-33840000D03*
%TD*%
D22*
%TO.C,C11*%
X97250000Y-59500000D03*
D23*
X97250000Y-57000000D03*
%TD*%
D18*
%TO.C,J8*%
X202562000Y-59080000D03*
X202562000Y-54000000D03*
X207642000Y-59080000D03*
X207642000Y-54000000D03*
%TD*%
D17*
%TO.C,C18*%
X177190000Y-139005000D03*
X177190000Y-124005000D03*
%TD*%
D10*
%TO.C,L4*%
X150380000Y-135330002D03*
X139000000Y-135330002D03*
X150380000Y-151230002D03*
X139000000Y-151230002D03*
D24*
X147305000Y-135055002D03*
X142075000Y-151565002D03*
%TD*%
D14*
%TO.C,TP4*%
X118000000Y-140000000D03*
X118000000Y-142540000D03*
%TD*%
D18*
%TO.C,J7*%
X202412000Y-42540000D03*
X202412000Y-37460000D03*
X207492000Y-42540000D03*
X207492000Y-37460000D03*
%TD*%
D14*
%TO.C,TP5*%
X119113000Y-93750000D03*
X119113000Y-96290000D03*
%TD*%
D17*
%TO.C,C16*%
X169400000Y-139005000D03*
X169400000Y-124005000D03*
%TD*%
D22*
%TO.C,C12*%
X96750000Y-101432380D03*
D23*
X96750000Y-98932380D03*
%TD*%
D25*
%TO.C,RV1*%
X65920000Y-78500000D03*
X65920000Y-81040000D03*
X65920000Y-83580000D03*
%TD*%
D12*
%TO.C,REF\u002A\u002A*%
X65000000Y-155000000D03*
D13*
X65000000Y-155000000D03*
%TD*%
D17*
%TO.C,C17*%
X185000000Y-94000000D03*
X185000000Y-109000000D03*
%TD*%
D12*
%TO.C,REF\u002A\u002A*%
X210000000Y-155000000D03*
D13*
X210000000Y-155000000D03*
%TD*%
D10*
%TO.C,L3*%
X150380000Y-83330002D03*
X139000000Y-83330002D03*
X150380000Y-99230002D03*
X139000000Y-99230002D03*
D24*
X147305000Y-83055002D03*
X142075000Y-99565002D03*
%TD*%
D10*
%TO.C,L2*%
X140933000Y-111995002D03*
X140933000Y-123375002D03*
X156833000Y-111995002D03*
X156833000Y-123375002D03*
D11*
X140658000Y-115070002D03*
X157168000Y-120300002D03*
%TD*%
D12*
%TO.C,REF\u002A\u002A*%
X65000000Y-29000000D03*
D13*
X65000000Y-29000000D03*
%TD*%
D14*
%TO.C,TP3*%
X116377000Y-70737000D03*
X116377000Y-68197000D03*
%TD*%
D17*
%TO.C,C14*%
X184894000Y-139005000D03*
X184894000Y-124005000D03*
%TD*%
D20*
%TO.C,J6*%
X132000000Y-47540000D03*
D21*
X132000000Y-45000000D03*
X132000000Y-42460000D03*
X132000000Y-39920000D03*
X132000000Y-37380000D03*
X132000000Y-34840000D03*
X129460000Y-47540000D03*
X129460000Y-45000000D03*
X129460000Y-42460000D03*
X129460000Y-39920000D03*
X129460000Y-37380000D03*
X129460000Y-34840000D03*
%TD*%
D18*
%TO.C,J3*%
X203460000Y-110540000D03*
X203460000Y-105460000D03*
X208540000Y-110540000D03*
X208540000Y-105460000D03*
%TD*%
D22*
%TO.C,C2*%
X74000000Y-31900000D03*
D23*
X74000000Y-29400000D03*
%TD*%
D22*
%TO.C,C1*%
X86000000Y-65000000D03*
D23*
X86000000Y-67500000D03*
%TD*%
D12*
%TO.C,REF\u002A\u002A*%
X210000000Y-90250000D03*
D13*
X210000000Y-90250000D03*
%TD*%
D20*
%TO.C,J9*%
X103840000Y-34760000D03*
D21*
X103840000Y-37300000D03*
X103840000Y-39840000D03*
X103840000Y-42380000D03*
X103840000Y-44920000D03*
X103840000Y-47460000D03*
X106380000Y-34760000D03*
X106380000Y-37300000D03*
X106380000Y-39840000D03*
X106380000Y-42380000D03*
X106380000Y-44920000D03*
X106380000Y-47460000D03*
%TD*%
M02*
